<?xml version="1.0" encoding="utf-8"?>
<!-- Generator: Adobe Illustrator 13.0.0, SVG Export Plug-In . SVG Version: 6.00 Build 14948)  -->
<!DOCTYPE svg PUBLIC "-//W3C//DTD SVG 1.1//EN" "http://www.w3.org/Graphics/SVG/1.1/DTD/svg11.dtd">
<svg version="1.1" id="Bitcoin_Logo" xmlns="http://www.w3.org/2000/svg" xmlns:xlink="http://www.w3.org/1999/xlink" x="0px"
	 y="0px" width="612px" height="792px" viewBox="0 90.7 612 792" enable-background="new 0 90.7 612 792" xml:space="preserve">
<path id="PMS_130_Coin" fill="#F2A900" d="M645.032,721.406c-24.479,98.159-123.96,158.101-222.36,133.62
	c-98.22-24.54-158.1-123.961-133.62-222.12c24.48-98.16,123.9-158.101,222.061-133.62
	C609.572,523.466,669.452,623.187,645.032,721.406z"/>
<path id="Bitcoin_Symbol" fill="#FFFFFF" d="M553.952,653.306c3.3-24.479-15.3-37.26-40.8-45.898l7.919-33.12l-20.159-4.86
	l-7.681,32.4c-5.342-1.262-10.74-2.521-16.079-3.602l7.68-32.398l-20.4-4.859l-7.92,33.119c-4.319-1.021-8.699-1.8-13.021-2.818l0,0
	l-27.78-6.66l-5.1,21.42c0,0,15.061,3.3,14.52,3.6c8.16,2.04,9.721,7.381,9.421,11.46l-8.939,37.74
	c0.541,0.239,1.26,0.239,2.041,0.78c-0.781-0.24-1.263-0.24-2.041-0.48l-12.24,52.801c-1.021,2.52-3.6,6.119-9.18,4.859
	c0.239,0.24-14.82-3.6-14.82-3.6l-9.539,23.22l26.279,6.12c4.859,1.26,9.721,2.278,14.28,3.6l-7.921,33.42l20.161,4.86l7.92-33.12
	c5.64,1.5,10.98,2.82,16.08,4.08l-7.92,32.88l20.16,4.86l7.92-33.42c34.439,6.119,60.18,3.301,70.619-28.08
	c8.4-25.021-0.779-39.301-19.14-48.721C541.712,679.826,551.432,671.126,553.952,653.306z M508.592,718.286
	c-5.88,25.02-48.18,12-61.738,8.699l10.438-44.399C471.092,685.946,514.712,692.065,508.592,718.286z M514.172,653.306
	c-5.34,22.682-40.561,11.76-52.02,8.939l9.719-40.26C483.092,624.746,519.812,629.606,514.172,653.306z"/>
</svg>
